<svg xmlns="http://www.w3.org/2000/svg" viewBox="0 0 408.37 144.62"><defs><style>.cls-1{fill:#fff;}</style></defs><title>CERCA</title><g id="Layer_2" data-name="Layer 2"><g id="Layer_1-2" data-name="Layer 1"><path class="cls-1" d="M334.42,137.84a1.4,1.4,0,0,1-1.55-1.38,1.5,1.5,0,0,1,1.48-1.51l2.7-.41v.53c0,2.12-1.27,2.77-2.63,2.77m-4.78-1.19c0,1.87,1.55,3.6,4.1,3.6a4,4,0,0,0,3.53-1.77,8.4,8.4,0,0,0,.12,1.43h3a13.86,13.86,0,0,1-.14-1.9v-5.88c0-2.4-1.41-4.54-5.2-4.54-3.21,0-4.94,2.06-5.13,3.94l2.87.6a2.11,2.11,0,0,1,2.28-1.94c1.36,0,2,.7,2,1.55,0,.42-.22.76-.9.85l-2.94.44c-2,.29-3.57,1.48-3.57,3.62m-7.9,8L329.25,128H325.8l-2.94,7-3.19-7h-3.62l5.08,10.45-2.82,6.22ZM307.35,133a2.26,2.26,0,0,1,2.24-2.48,2.11,2.11,0,0,1,2.21,2.38v7H315v-7.53c0-2.63-1.36-4.74-4.32-4.74a4,4,0,0,0-3.45,1.8V128h-3.14v12h3.23Zm-9.16,6.88h3.09a19.35,19.35,0,0,1-.12-2.16V128h-3.24v7a2.15,2.15,0,0,1-2.26,2.36,2.13,2.13,0,0,1-2.18-2.41V128h-3.24v7.56a4.41,4.41,0,0,0,4.55,4.71,3.76,3.76,0,0,0,3.3-1.6,7.92,7.92,0,0,0,.1,1.29m-10.74-17.59h-3.23v17.59h3.23Zm-11.79,15.52a1.4,1.4,0,0,1-1.55-1.38,1.51,1.51,0,0,1,1.48-1.51l2.7-.41v.53c0,2.12-1.27,2.77-2.63,2.77m-4.78-1.19c0,1.87,1.55,3.6,4.1,3.6a4,4,0,0,0,3.53-1.77,8.4,8.4,0,0,0,.12,1.43h3a13.86,13.86,0,0,1-.14-1.9v-5.88c0-2.4-1.41-4.54-5.2-4.54-3.21,0-4.94,2.06-5.13,3.94l2.87.6a2.11,2.11,0,0,1,2.28-1.94c1.36,0,2,.7,2,1.55,0,.42-.22.76-.9.85l-2.94.44c-2,.29-3.57,1.48-3.57,3.62m-4-12.27H264v1.68A1.72,1.72,0,0,1,262.1,128h-.6v2.87h2.16v5.57a3.46,3.46,0,0,0,3.79,3.69,4.8,4.8,0,0,0,1.82-.29v-2.68a4.49,4.49,0,0,1-1,.1c-.93,0-1.41-.34-1.41-1.38v-5h2.4V128h-2.4ZM254.4,137.84a1.4,1.4,0,0,1-1.55-1.38,1.5,1.5,0,0,1,1.48-1.51l2.7-.41v.53c0,2.12-1.27,2.77-2.63,2.77m-4.79-1.19c0,1.87,1.56,3.6,4.11,3.6a4,4,0,0,0,3.52-1.77,7.42,7.42,0,0,0,.13,1.43h3a13.69,13.69,0,0,1-.15-1.9v-5.88c0-2.4-1.4-4.54-5.2-4.54-3.2,0-4.93,2.06-5.12,3.94l2.87.6a2.11,2.11,0,0,1,2.28-1.94c1.36,0,2,.7,2,1.55,0,.42-.22.76-.9.85l-2.94.44c-2,.29-3.58,1.48-3.58,3.62m-9,3.62a7.84,7.84,0,0,0,8-5.85l-3.14-.95a4.78,4.78,0,0,1-4.83,3.52,5.31,5.31,0,0,1-5.35-5.68c0-3.92,2.72-5.76,5.3-5.76a4.51,4.51,0,0,1,4.74,3.47l3.16-1c-.68-2.8-3.14-5.71-7.9-5.71a8.69,8.69,0,0,0-8.77,9,8.6,8.6,0,0,0,8.82,9m-18.5-4.59a2.63,2.63,0,0,1-2.72,1.82,2.91,2.91,0,0,1-3-2.72H225c0-.05.05-.53.05-1,0-3.84-2.21-6.2-5.9-6.2a6.35,6.35,0,0,0,.29,12.68,5.38,5.38,0,0,0,5.44-3.79Zm-5.66-3.11a2.59,2.59,0,0,1,2.68-2.36,2.41,2.41,0,0,1,2.67,2.36Zm-14.41,1.34c0-2.14,1.31-3.36,3-3.36s2.94,1.19,2.94,3.33-1.29,3.43-2.94,3.43-3-1.27-3-3.4m9-11.59h-3.18v6.82c-.34-.63-1.31-1.48-3.38-1.48-3.38,0-5.73,2.75-5.73,6.25s2.43,6.29,5.83,6.29a3.74,3.74,0,0,0,3.35-1.68,8.17,8.17,0,0,0,.12,1.39h3.09c-.05-.49-.1-1.36-.1-2.16Z"/><path class="cls-1" d="M402.44,111.18a1.4,1.4,0,0,1-1.55-1.38,1.5,1.5,0,0,1,1.48-1.51l2.7-.41v.53a2.43,2.43,0,0,1-2.63,2.77M397.65,110c0,1.87,1.56,3.6,4.11,3.6a4,4,0,0,0,3.53-1.78,7.6,7.6,0,0,0,.12,1.44h3a14.12,14.12,0,0,1-.14-1.9v-5.88c0-2.41-1.41-4.54-5.21-4.54-3.2,0-4.93,2.06-5.12,3.93l2.86.61a2.12,2.12,0,0,1,2.29-1.94c1.36,0,2,.7,2,1.55,0,.41-.22.75-.9.85l-2.94.44c-2,.29-3.58,1.48-3.58,3.62m-6.73-6.08a2.61,2.61,0,0,1,2.65,2l2.89-1a5.46,5.46,0,0,0-5.61-4,6.12,6.12,0,0,0-6.2,6.34,6.18,6.18,0,0,0,6.3,6.34,5.56,5.56,0,0,0,5.59-4l-2.85-1a2.73,2.73,0,0,1-2.74,2,3.08,3.08,0,0,1-3.06-3.38,3,3,0,0,1,3-3.36m-7-2.67c-.25,0-.49,0-.76,0a3.55,3.55,0,0,0-3.4,1.87v-1.77h-3.13v12h3.23v-5.47c0-2.58,1.43-3.38,3.08-3.38a4.46,4.46,0,0,1,1,.1ZM371.65,109a2.63,2.63,0,0,1-2.72,1.82,2.91,2.91,0,0,1-3-2.72h8.55c0-.05,0-.54,0-1,0-3.84-2.21-6.19-5.9-6.19a6,6,0,0,0-5.89,6.29,6.06,6.06,0,0,0,6.18,6.39,5.39,5.39,0,0,0,5.44-3.79ZM366,105.91a2.58,2.58,0,0,1,2.67-2.36,2.41,2.41,0,0,1,2.68,2.36Zm-9.74-2a2.63,2.63,0,0,1,2.65,2l2.89-1a5.47,5.47,0,0,0-5.62-4,6.11,6.11,0,0,0-6.19,6.34,6.18,6.18,0,0,0,6.29,6.34,5.55,5.55,0,0,0,5.59-4l-2.84-1a2.75,2.75,0,0,1-2.75,2,3.08,3.08,0,0,1-3.06-3.38,3,3,0,0,1,3-3.36M345.94,109a2.63,2.63,0,0,1-2.72,1.82,2.91,2.91,0,0,1-3-2.72h8.55c0-.05.05-.54.05-1,0-3.84-2.21-6.19-5.9-6.19a6,6,0,0,0-5.89,6.29,6.06,6.06,0,0,0,6.18,6.39,5.39,5.39,0,0,0,5.44-3.79Zm-5.66-3.11a2.58,2.58,0,0,1,2.67-2.36,2.41,2.41,0,0,1,2.68,2.36Zm-13.1-2.19V98.93h2.72c1.7,0,2.7.95,2.7,2.41s-1,2.38-2.7,2.38Zm5.13,9.53h3.74l-3.69-7a4.9,4.9,0,0,0,3.67-4.89A5.17,5.17,0,0,0,330.54,96H323.8v17.23h3.38v-6.64h1.75ZM313.11,109a2.63,2.63,0,0,1-2.72,1.82,2.91,2.91,0,0,1-3-2.72h8.55c0-.05.05-.54.05-1,0-3.84-2.21-6.19-5.91-6.19a6,6,0,0,0-5.88,6.29,6.06,6.06,0,0,0,6.18,6.39,5.39,5.39,0,0,0,5.44-3.79Zm-5.66-3.11a2.58,2.58,0,0,1,2.67-2.36,2.41,2.41,0,0,1,2.68,2.36ZM293,107.24c0-2.13,1.31-3.35,3-3.35s2.95,1.19,2.95,3.33-1.29,3.43-2.95,3.43-3-1.27-3-3.41m9-11.59H298.9v6.83c-.34-.63-1.32-1.48-3.38-1.48-3.38,0-5.74,2.74-5.74,6.24s2.43,6.3,5.84,6.3a3.75,3.75,0,0,0,3.35-1.68,8.27,8.27,0,0,0,.12,1.39h3.09c-.05-.49-.1-1.37-.1-2.17Zm-28.65,14.27c.15,1.36,1.38,3.69,5,3.69,3.14,0,4.64-2,4.64-3.94,0-1.75-1.19-3.18-3.55-3.67l-1.7-.36c-.65-.12-1.09-.49-1.09-1.07a1.37,1.37,0,0,1,1.53-1.19,1.83,1.83,0,0,1,2,1.6l2.7-.6c-.15-1.29-1.29-3.45-4.69-3.45-2.58,0-4.47,1.77-4.47,3.91,0,1.67,1,3.06,3.35,3.57l1.58.36c.92.2,1.29.64,1.29,1.17s-.51,1.19-1.58,1.19a2,2,0,0,1-2.19-1.82Zm-3.91-.9a2.65,2.65,0,0,1-2.73,1.82,2.91,2.91,0,0,1-3-2.72h8.56c0-.05,0-.54,0-1,0-3.84-2.21-6.19-5.9-6.19a6.35,6.35,0,0,0,.29,12.68,5.38,5.38,0,0,0,5.44-3.79Zm-5.67-3.11a2.59,2.59,0,0,1,2.68-2.36,2.41,2.41,0,0,1,2.67,2.36Zm-4-4.67c-.24,0-.49,0-.75,0a3.57,3.57,0,0,0-3.41,1.87v-1.77h-3.13v12h3.23v-5.47c0-2.58,1.44-3.38,3.09-3.38a4.38,4.38,0,0,1,1,.1ZM248,97.72h-2.92v1.67a1.72,1.72,0,0,1-1.85,1.9h-.61v2.87h2.17v5.56a3.47,3.47,0,0,0,3.79,3.7,4.8,4.8,0,0,0,1.82-.29v-2.68a4.59,4.59,0,0,1-1,.1c-.92,0-1.4-.34-1.4-1.39v-5h2.4v-2.87H248Zm-14.46,8.65a2.24,2.24,0,0,1,2.23-2.48,2.1,2.1,0,0,1,2.21,2.38v7h3.24v-7.54c0-2.62-1.37-4.74-4.33-4.74a4,4,0,0,0-3.45,1.8v-1.48h-3.14v12h3.24ZM225.41,109a2.63,2.63,0,0,1-2.72,1.82,2.91,2.91,0,0,1-3-2.72h8.55c0-.05.05-.54.05-1,0-3.84-2.21-6.19-5.91-6.19a6.35,6.35,0,0,0,.29,12.68,5.39,5.39,0,0,0,5.45-3.79Zm-5.66-3.11a2.58,2.58,0,0,1,2.67-2.36,2.41,2.41,0,0,1,2.68,2.36Zm-12,7.7a7.85,7.85,0,0,0,8-5.86l-3.14-.94a4.78,4.78,0,0,1-4.83,3.52,5.32,5.32,0,0,1-5.35-5.69c0-3.91,2.72-5.76,5.3-5.76a4.51,4.51,0,0,1,4.74,3.48l3.16-1c-.68-2.79-3.14-5.71-7.9-5.71a8.69,8.69,0,0,0-8.77,9,8.6,8.6,0,0,0,8.82,9"/><path class="cls-1" d="M110.87,80.59V66.53H84.4V53.77h23.93v-13H84.4V28.08h26.37v-14H70.07V80.59ZM33.36,82C53.3,82,61.82,67.93,63.91,58.74l-13.69-4C49,59.49,44.51,67.18,33.36,67.18c-9.61,0-18.49-7.22-18.49-19.69,0-14,9.7-20.35,18.31-20.35,11.33,0,15.41,7.78,16.41,12.38l13.5-4.41C61,25.54,52.49,12.69,33.18,12.69,15.23,12.69,0,26.76,0,47.49S14.87,82,33.36,82"/><path class="cls-1" d="M289.82,30.61l7.71,23h-15.6Zm16.86,50h15.59L298.34,14.1H281.75l-24.2,66.49H272.6l4.62-13.5h24.84ZM229.08,82c19.95,0,28.47-14.07,30.55-23.26l-13.68-4c-1.27,4.78-5.72,12.47-16.87,12.47-9.6,0-18.49-7.22-18.49-19.69,0-14,9.7-20.35,18.31-20.35,11.33,0,15.41,7.78,16.41,12.38l13.51-4.41c-2.09-9.57-10.61-22.42-29.92-22.42-18,0-33.18,14.07-33.18,34.8S210.59,82,229.08,82"/><path class="cls-1" d="M163,35c0-5-3.18-8.07-9.07-8.07h-8.43V43.08h8.43c5.89,0,9.07-3.38,9.07-8.06m1.81,18.66,13,26.91H162.08L150.57,55.83h-5.08V80.59H131.17V14.1h25.47c12.69,0,20.85,9,20.85,20.82,0,9-4.8,15.85-12.69,18.76M188.51,0H118.17V122.9h70.34Z"/></g></g></svg>