<?xml version="1.0" encoding="utf-8"?>
<!-- Generator: Adobe Illustrator 27.0.0, SVG Export Plug-In . SVG Version: 6.00 Build 0)  -->
<svg version="1.1" id="Layer_1" xmlns="http://www.w3.org/2000/svg" xmlns:xlink="http://www.w3.org/1999/xlink" x="0px" y="0px"
	 viewBox="0 0 708.3 141" style="enable-background:new 0 0 708.3 141;" xml:space="preserve">
<style type="text/css">
	.st0{fill:#FFFFFF;}
</style>
<g id="Layer_2_00000021834062989324195070000011523185156474234277_">
	<g id="Layer_1-2">
		<path class="st0" d="M264.8,65.6c-0.2-1.1-0.7-2.2-1.3-3.2c-0.6-0.9-1.3-1.7-2.2-2.4c-0.9-0.6-1.8-1.1-2.8-1.5
			c-1-0.3-2.1-0.5-3.2-0.5c-1.8,0-3.7,0.3-5.3,1.1c-1.4,0.7-2.7,1.7-3.6,3c-1,1.3-1.7,2.7-2.1,4.2c-0.9,3.1-0.9,6.4,0,9.5
			c0.4,1.5,1.1,2.9,2.1,4.1c1,1.3,2.2,2.3,3.6,3c1.7,0.8,3.5,1.2,5.3,1.1c1.3,0,2.7-0.2,3.9-0.8c1.1-0.5,2.2-1.2,3-2.1
			c0.8-0.9,1.5-2,2-3.2c0.5-1.2,0.9-2.6,1-3.9h3c-0.2,1.8-0.6,3.5-1.4,5.2c-0.6,1.5-1.6,2.8-2.7,3.9c-1.1,1.1-2.4,1.9-3.9,2.5
			c-1.6,0.6-3.3,0.9-5,0.9c-2.2,0-4.4-0.4-6.4-1.3c-1.7-0.8-3.3-1.9-4.5-3.4c-1.2-1.5-2.2-3.2-2.7-5c-1.2-3.8-1.2-7.9,0-11.7
			c0.6-1.8,1.5-3.5,2.7-5c1.3-1.5,2.8-2.6,4.6-3.4c2-0.9,4.2-1.3,6.4-1.3c1.5,0,2.9,0.2,4.3,0.7c1.4,0.4,2.7,1.1,3.8,1.9
			c1.1,0.9,2.1,1.9,2.9,3.2c0.8,1.3,1.3,2.8,1.5,4.3L264.8,65.6z"/>
		<path class="st0" d="M272.6,65.2c0.6-1.8,1.5-3.5,2.7-5c1.3-1.5,2.8-2.6,4.6-3.4c4.1-1.7,8.7-1.7,12.8,0c1.8,0.8,3.3,2,4.6,3.4
			c1.2,1.5,2.2,3.2,2.7,5c1.2,3.8,1.2,7.9,0,11.7c-0.6,1.8-1.5,3.5-2.7,5c-1.3,1.5-2.8,2.6-4.6,3.4c-4.1,1.7-8.7,1.7-12.8,0
			c-1.8-0.8-3.3-2-4.6-3.4c-1.2-1.5-2.2-3.2-2.7-5C271.4,73.2,271.4,69.1,272.6,65.2L272.6,65.2z M275.3,75.9
			c0.4,1.5,1.1,2.9,2.1,4.1c1,1.3,2.2,2.3,3.6,3c3.4,1.5,7.2,1.5,10.6,0c1.4-0.7,2.7-1.7,3.6-3c1-1.2,1.7-2.7,2.1-4.2
			c0.9-3.1,0.9-6.4,0-9.5c-0.4-1.5-1.1-2.9-2.1-4.2c-1-1.3-2.2-2.3-3.6-3c-3.4-1.5-7.2-1.5-10.6,0c-1.4,0.7-2.7,1.7-3.6,3
			c-1,1.3-1.7,2.7-2.1,4.2C274.4,69.4,274.4,72.7,275.3,75.9L275.3,75.9z"/>
		<path class="st0" d="M306.2,55.6h3.3l18.1,26.3h0.1V55.6h3v31.1h-3.3l-18.2-26.3h-0.1v26.3h-3L306.2,55.6z"/>
		<path class="st0" d="M334.2,55.6h24.6v2.5H348v28.6h-3V58.1h-10.8V55.6z"/>
		<path class="st0" d="M362.4,55.6h14.2c1.2,0,2.4,0.2,3.6,0.5c1.1,0.3,2.1,0.8,3,1.5c0.9,0.7,1.5,1.5,2,2.5
			c0.5,1.1,0.8,2.4,0.8,3.6c0,1.8-0.5,3.6-1.5,5.1c-1.1,1.5-2.7,2.5-4.5,2.8v0.1c0.9,0.1,1.7,0.4,2.5,0.8c0.6,0.4,1.2,0.9,1.6,1.5
			c0.4,0.6,0.7,1.4,0.9,2.1c0.2,0.9,0.3,1.7,0.4,2.6c0,0.5,0,1.2,0.1,1.9c0.1,0.8,0.1,1.5,0.2,2.3c0.1,0.7,0.2,1.5,0.4,2.2
			c0.1,0.6,0.4,1.1,0.8,1.6h-3.3c-0.2-0.3-0.3-0.7-0.4-1.1c-0.1-0.4-0.2-0.9-0.2-1.3c-0.1-0.4-0.1-0.9-0.1-1.3c0-0.4,0-0.8-0.1-1.1
			c-0.1-1.1-0.2-2.2-0.3-3.3c-0.1-1-0.4-2-0.8-2.9c-0.4-0.8-1-1.6-1.8-2.1c-1-0.6-2.1-0.8-3.3-0.7h-11.2v13.8h-3L362.4,55.6z
			 M365.4,70.3h11.1c0.9,0,1.7-0.1,2.6-0.4c0.8-0.3,1.5-0.7,2.1-1.2c0.6-0.5,1.1-1.2,1.5-1.9c0.4-0.8,0.6-1.7,0.5-2.6
			c0.1-1.7-0.5-3.3-1.7-4.5c-1.4-1.2-3.2-1.8-5-1.7h-11.1L365.4,70.3z"/>
		<path class="st0" d="M401.2,55.6h3.3l12.2,31.1h-3.2l-3.8-9.7h-14.1l-3.7,9.7h-3.2L401.2,55.6z M396.5,74.5h12.2l-6-15.9
			L396.5,74.5z"/>
		<path class="st0" d="M432.9,55.6h3v28.5h17.4v2.5h-20.4V55.6z"/>
		<path class="st0" d="M466,55.6h3.3l12.2,31.1h-3.2l-3.8-9.7h-14.1l-3.7,9.7h-3.2L466,55.6z M461.3,74.5h12.2l-6-15.9L461.3,74.5z"
			/>
		<path class="st0" d="M497.8,55.6h3v28.5h17.4v2.5h-20.4V55.6z"/>
		<path class="st0" d="M521.8,55.6h21.5v2.5h-18.5v11.2h17.3v2.5h-17.3v12.3h18.7v2.5h-21.7V55.6z"/>
		<path class="st0" d="M548,55.6h3v18.8c0,1.5,0.2,3,0.6,4.5c0.4,1.1,1,2.2,1.8,3c0.8,0.8,1.8,1.4,2.9,1.7c1.2,0.4,2.5,0.5,3.8,0.5
			c1.3,0,2.6-0.2,3.8-0.5c1.1-0.3,2.1-0.9,2.9-1.7c0.8-0.8,1.4-1.9,1.8-3c0.4-1.5,0.6-3,0.6-4.5V55.6h3v19.5c0,1.5-0.2,3-0.7,4.5
			c-0.4,1.4-1.2,2.6-2.1,3.7c-1,1.1-2.3,2-3.7,2.5c-3.6,1.3-7.5,1.3-11.1,0c-1.4-0.6-2.7-1.4-3.7-2.5c-1-1.1-1.7-2.3-2.1-3.7
			c-0.5-1.4-0.7-2.9-0.7-4.5L548,55.6z"/>
		<path class="st0" d="M601.5,65.6c-0.2-1.1-0.7-2.2-1.3-3.2c-0.6-0.9-1.3-1.7-2.2-2.4c-0.9-0.6-1.8-1.1-2.8-1.5
			c-1-0.3-2.1-0.5-3.2-0.5c-1.8,0-3.7,0.3-5.3,1.1c-1.4,0.7-2.7,1.7-3.6,3c-1,1.3-1.7,2.7-2.1,4.2c-0.9,3.1-0.9,6.4,0,9.5
			c0.4,1.5,1.2,2.9,2.1,4.1c1,1.3,2.2,2.3,3.6,3c1.7,0.8,3.5,1.2,5.3,1.1c1.3,0,2.7-0.2,3.9-0.8c1.1-0.5,2.2-1.2,3-2.1
			c0.8-0.9,1.5-2,2-3.2c0.5-1.2,0.9-2.6,1-3.9h3c-0.2,1.8-0.6,3.5-1.3,5.2c-0.6,1.5-1.6,2.8-2.7,3.9c-1.1,1.1-2.4,1.9-3.9,2.5
			c-1.6,0.6-3.3,0.9-5,0.9c-2.2,0-4.4-0.4-6.4-1.3c-1.7-0.8-3.3-1.9-4.6-3.4c-1.2-1.5-2.2-3.2-2.7-5c-1.2-3.8-1.2-7.9,0-11.7
			c0.6-1.8,1.5-3.5,2.7-5c1.3-1.5,2.8-2.6,4.6-3.4c2-0.9,4.2-1.3,6.4-1.3c1.5,0,2.9,0.2,4.3,0.7c1.4,0.4,2.7,1.1,3.8,1.9
			c1.2,0.9,2.2,1.9,2.9,3.2c0.8,1.3,1.3,2.8,1.5,4.3H601.5z"/>
		<path class="st0" d="M610,55.6h21.5v2.5H613v11.2h17.3v2.5H613v12.3h18.7v2.5H610V55.6z"/>
		<path class="st0" d="M636.4,55.6h4.3l10.8,27.2l10.7-27.2h4.3v31.1h-3V59.8h-0.1l-10.6,26.9h-2.8l-10.7-26.9h-0.1v26.9h-3
			L636.4,55.6z"/>
		<path class="st0" d="M673.6,55.6h3v31.1h-3V55.6z"/>
		<path class="st0" d="M692.8,55.6h3.3l12.2,31.1h-3.2l-3.8-9.7h-14.1l-3.7,9.7h-3.2L692.8,55.6z M688.1,74.5h12.2l-6-15.9
			L688.1,74.5z"/>
		<circle class="st0" cx="117.6" cy="16" r="16"/>
		<path class="st0" d="M242,6.9h2.8V36H242V6.9z"/>
		<path class="st0" d="M251.7,15h2.6v3.6h0.1c0.2-0.6,0.6-1.2,1-1.7c0.4-0.5,1-1,1.6-1.3c0.6-0.4,1.3-0.6,2-0.6h2.1
			c1.2,0,2.5,0.2,3.7,0.6c0.9,0.3,1.7,0.9,2.4,1.6c0.6,0.7,1,1.6,1.3,2.5c0.3,1.1,0.4,2.2,0.4,3.3V36h-2.6V23.3
			c0-0.8-0.1-1.6-0.2-2.4c-0.1-0.7-0.4-1.4-0.9-2c-0.4-0.6-1-1-1.6-1.3c-0.8-0.3-1.7-0.5-2.6-0.5c-0.9,0-1.9,0.2-2.7,0.5
			c-0.8,0.3-1.5,0.8-2.1,1.5c-0.6,0.6-1,1.4-1.3,2.2c-0.3,0.9-0.5,1.8-0.5,2.8V36h-2.6L251.7,15z"/>
		<path class="st0" d="M287.4,21.1c0-0.7-0.2-1.4-0.5-2c-0.3-0.6-0.7-1.1-1.2-1.4c-0.5-0.4-1.1-0.7-1.7-0.8
			c-0.7-0.2-1.4-0.3-2.1-0.3c-0.6,0-1.2,0.1-1.7,0.2c-0.6,0.1-1.1,0.3-1.6,0.6c-0.5,0.3-0.9,0.7-1.2,1.1c-0.3,0.5-0.5,1.1-0.5,1.7
			c0,0.5,0.1,1,0.4,1.4c0.3,0.4,0.7,0.7,1.1,1c0.4,0.3,0.9,0.5,1.4,0.7c0.5,0.2,1,0.3,1.4,0.4l3.4,0.8c0.7,0.1,1.5,0.3,2.2,0.6
			c0.7,0.3,1.3,0.6,1.9,1.1c0.6,0.5,1,1.1,1.4,1.7c0.4,0.7,0.6,1.6,0.5,2.4c0,1-0.2,2-0.8,2.9c-0.5,0.8-1.2,1.5-2,2
			c-0.8,0.5-1.7,0.9-2.7,1.1c-1,0.2-2,0.3-3,0.3c-2.1,0.1-4.3-0.5-6-1.8c-1.5-1.3-2.3-3.2-2.5-5.7h2.6c0,1.5,0.7,3,1.9,3.9
			c1.2,0.9,2.8,1.4,4.3,1.3c0.6,0,1.3-0.1,1.9-0.2c0.7-0.1,1.3-0.4,1.9-0.7c0.5-0.3,1-0.7,1.4-1.2c0.4-0.5,0.6-1.2,0.5-1.9
			c0-0.5-0.1-1.1-0.4-1.5c-0.2-0.4-0.6-0.8-1-1.1c-0.5-0.3-1-0.5-1.5-0.7c-0.6-0.2-1.1-0.4-1.7-0.5l-3.3-0.7
			c-0.8-0.2-1.6-0.4-2.3-0.8c-0.7-0.3-1.3-0.6-1.9-1.1c-0.5-0.4-0.9-0.9-1.2-1.5c-0.3-0.7-0.5-1.5-0.5-2.2c0-1,0.2-1.9,0.7-2.7
			c0.5-0.8,1.1-1.4,1.8-1.8c0.8-0.5,1.6-0.8,2.5-1c0.9-0.2,1.8-0.3,2.8-0.3c1,0,2,0.1,3,0.4c0.9,0.3,1.7,0.7,2.4,1.3
			c0.7,0.6,1.3,1.3,1.6,2.1c0.4,0.9,0.7,2,0.7,3L287.4,21.1z"/>
		<path class="st0" d="M299.8,15h4.3v2.1h-4.3v13.9c0,0.7,0.1,1.3,0.3,1.9c0.2,0.5,0.8,0.7,1.7,0.8c0.7,0,1.5,0,2.2-0.1v2.2
			c-0.4,0-0.8,0-1.1,0s-0.8,0-1.1,0c-1.3,0.1-2.6-0.2-3.6-1c-0.7-0.7-1-1.9-1-3.6V17.1h-3.7V15h3.7V8.7h2.6L299.8,15z"/>
		<path class="st0" d="M309.2,6.9h2.6V11h-2.6V6.9z M309.2,14.9h2.6V36h-2.6V14.9z"/>
		<path class="st0" d="M322.1,15h4.3v2.1h-4.3v13.9c0,0.7,0.1,1.3,0.3,1.9c0.2,0.5,0.8,0.7,1.7,0.8c0.7,0,1.5,0,2.2-0.1v2.2
			c-0.4,0-0.8,0-1.1,0s-0.8,0-1.1,0c-1.3,0.1-2.6-0.2-3.6-1c-0.7-0.7-1-1.9-1-3.6V17.1h-3.7V15h3.7V8.7h2.6L322.1,15z"/>
		<path class="st0" d="M348.4,36H346v-3.8h-0.1c-0.6,1.3-1.6,2.4-2.9,2.9c-1.4,0.6-2.8,0.9-4.3,0.8c-1.2,0-2.3-0.2-3.4-0.5
			c-0.9-0.3-1.7-0.8-2.3-1.5c-0.6-0.7-1-1.5-1.3-2.5c-0.3-1-0.4-2.1-0.4-3.2V15h2.6v13.2c-0.1,1.5,0.4,3,1.3,4.2
			c0.8,0.9,2.3,1.4,4.3,1.4c1,0,2-0.2,2.8-0.7c0.8-0.4,1.5-1.1,2-1.8c0.5-0.8,0.9-1.7,1.1-2.6c0.2-1,0.4-2,0.4-3V15h2.6L348.4,36z"
			/>
		<path class="st0" d="M358.6,15h4.3v2.1h-4.3v13.9c0,0.7,0.1,1.3,0.4,1.9c0.2,0.5,0.8,0.7,1.7,0.8c0.7,0,1.5,0,2.2-0.1v2.2
			c-0.4,0-0.8,0-1.1,0s-0.8,0-1.1,0c-1.3,0.2-2.6-0.1-3.6-0.9c-0.7-0.7-1-1.9-1-3.6V17.1h-3.7V15h3.7V8.7h2.6L358.6,15z"/>
		<path class="st0" d="M381,15.8c1.2,0.5,2.2,1.3,3.1,2.3c0.8,1,1.5,2.1,1.9,3.3c0.9,2.6,0.9,5.5,0,8.1c-0.4,1.2-1.1,2.4-1.9,3.3
			c-0.9,1-1.9,1.7-3.1,2.3c-2.7,1.1-5.8,1.1-8.5,0c-1.2-0.5-2.2-1.3-3.1-2.3c-0.9-1-1.5-2.1-1.9-3.3c-0.9-2.6-0.9-5.5,0-8.1
			c0.4-1.2,1.1-2.4,1.9-3.3c0.9-1,1.9-1.7,3.1-2.3C375.2,14.7,378.3,14.7,381,15.8L381,15.8z M373.5,17.8c-0.9,0.5-1.7,1.1-2.3,1.9
			c-0.6,0.8-1.1,1.7-1.4,2.7c-0.6,2-0.6,4.1,0,6.1c0.3,1,0.8,1.9,1.4,2.7c2.4,3,6.8,3.6,9.8,1.2c0.4-0.3,0.8-0.7,1.2-1.2
			c0.6-0.8,1.1-1.7,1.4-2.7c0.6-2,0.6-4.1,0-6.1c-0.3-1-0.8-1.9-1.4-2.7C380.1,17.2,376.5,16.4,373.5,17.8L373.5,17.8z"/>
		<path class="st0" d="M422.9,36h-2.4v-4h-0.1c-0.3,0.7-0.7,1.3-1.2,1.9c-0.5,0.6-1.1,1.1-1.8,1.5c-0.7,0.4-1.4,0.6-2.2,0.6l-2.3,0
			c-1.4,0-2.9-0.3-4.2-0.8c-1.1-0.5-2.1-1.3-3-2.3c-0.8-1-1.4-2.1-1.8-3.3c-0.8-2.6-0.8-5.4,0-8c0.4-1.2,0.9-2.4,1.8-3.3
			c0.8-1,1.8-1.8,3-2.3c1.3-0.6,2.7-0.9,4.2-0.9c1.5,0,3.1,0.4,4.4,1.2c0.6,0.4,1.2,0.9,1.7,1.4c0.5,0.6,0.9,1.3,1.2,2h0.1V6.9h2.6
			L422.9,36z M406.5,28.5c0.2,1,0.7,1.9,1.2,2.7c0.6,0.8,1.3,1.4,2.1,1.9c1,0.5,2,0.8,3.1,0.7c1.2,0,2.4-0.2,3.4-0.7
			c0.9-0.5,1.7-1.1,2.3-1.9c0.6-0.8,1-1.7,1.3-2.7c0.5-2,0.5-4,0-6c-0.2-1-0.7-1.9-1.3-2.7c-0.6-0.8-1.4-1.5-2.3-1.9
			c-1.1-0.5-2.2-0.8-3.4-0.7c-1.1,0-2.2,0.2-3.1,0.7c-0.8,0.5-1.6,1.1-2.1,1.9c-0.6,0.8-1,1.7-1.2,2.7C406,24.4,406,26.5,406.5,28.5
			L406.5,28.5z"/>
		<path class="st0" d="M430.7,26.2c0,0.9,0.1,1.8,0.4,2.7c0.3,0.9,0.7,1.7,1.2,2.5c0.6,0.8,1.3,1.4,2.1,1.8c1,0.5,2.1,0.7,3.1,0.7
			c1.6,0.1,3.2-0.4,4.4-1.5c1.1-1.1,1.9-2.4,2.2-3.9h2.6c-0.4,2.1-1.4,4.1-3,5.5c-1.7,1.4-3.9,2.1-6.2,2c-1.5,0-3-0.2-4.3-0.8
			c-1.1-0.5-2.1-1.3-2.9-2.3c-0.8-1-1.4-2.1-1.7-3.3c-0.4-1.3-0.6-2.6-0.5-4c0-1.3,0.2-2.6,0.5-3.8c0.3-1.2,0.9-2.4,1.7-3.4
			c0.8-1,1.8-1.8,2.9-2.4c1.3-0.6,2.8-0.9,4.3-0.9c1.5,0,3,0.3,4.3,1c1.2,0.6,2.1,1.5,2.9,2.5c0.8,1.1,1.3,2.3,1.6,3.6
			c0.3,1.3,0.5,2.7,0.4,4.1L430.7,26.2z M444.2,24c0-0.9-0.2-1.8-0.5-2.6c-0.3-0.8-0.7-1.5-1.3-2.2c-0.6-0.6-1.3-1.2-2.1-1.5
			c-0.9-0.4-1.8-0.6-2.8-0.6c-1.9,0-3.6,0.7-4.9,2.1c-0.6,0.6-1,1.4-1.4,2.2c-0.3,0.8-0.6,1.7-0.7,2.6H444.2z"/>
		<path class="st0" d="M464.9,6.9h2.8V36h-2.8V6.9z"/>
		<path class="st0" d="M474.6,15h2.6v3.6h0.1c0.2-0.6,0.6-1.2,1-1.7c0.4-0.5,1-1,1.6-1.3c0.6-0.4,1.3-0.6,2-0.6h2.1
			c1.2,0,2.5,0.2,3.7,0.6c0.9,0.3,1.8,0.9,2.4,1.6c0.6,0.7,1,1.6,1.3,2.5c0.3,1.1,0.4,2.2,0.4,3.3V36H489V23.3
			c0-0.8-0.1-1.6-0.2-2.4c-0.1-0.7-0.4-1.4-0.9-2c-0.4-0.6-1-1-1.6-1.3c-0.8-0.3-1.7-0.5-2.6-0.5c-0.9,0-1.9,0.2-2.7,0.5
			c-0.8,0.3-1.5,0.8-2,1.5c-0.6,0.6-1,1.4-1.3,2.2c-0.3,0.9-0.5,1.8-0.5,2.8V36h-2.6L474.6,15z"/>
		<path class="st0" d="M495.4,15h2.9l6.6,18.4h0.1l6.5-18.4h2.6l-7.8,21h-2.7L495.4,15z"/>
		<path class="st0" d="M519.4,26.2c0,0.9,0.1,1.8,0.4,2.7c0.3,0.9,0.7,1.7,1.2,2.5c0.6,0.8,1.3,1.4,2.1,1.8c1,0.5,2.1,0.7,3.2,0.7
			c1.6,0.1,3.2-0.4,4.4-1.5c1.1-1.1,1.9-2.4,2.2-3.9h2.6c-0.4,2.1-1.4,4.1-3,5.5c-1.7,1.4-3.9,2.1-6.2,2c-1.5,0-3-0.2-4.3-0.8
			c-1.1-0.5-2.1-1.3-2.9-2.3c-0.8-1-1.4-2.1-1.7-3.3c-0.4-1.3-0.6-2.6-0.5-4c0-1.3,0.2-2.6,0.5-3.8c0.3-1.2,0.9-2.4,1.7-3.4
			c0.8-1,1.8-1.9,2.9-2.4c1.3-0.6,2.8-0.9,4.3-0.9c1.5,0,3,0.3,4.3,1c1.2,0.6,2.1,1.5,2.9,2.5c0.8,1.1,1.3,2.3,1.6,3.6
			c0.3,1.3,0.5,2.7,0.4,4.1L519.4,26.2z M533,24c0-0.9-0.2-1.8-0.5-2.6c-0.3-0.8-0.7-1.5-1.3-2.2c-0.6-0.6-1.3-1.2-2.1-1.5
			c-0.9-0.4-1.8-0.6-2.8-0.6c-1.9,0-3.6,0.7-4.9,2.1c-0.6,0.6-1,1.4-1.4,2.2c-0.3,0.8-0.6,1.7-0.7,2.6H533z"/>
		<path class="st0" d="M552.9,21.1c0-0.7-0.2-1.4-0.5-2c-0.3-0.6-0.7-1.1-1.2-1.4c-0.5-0.4-1.1-0.7-1.7-0.8
			c-0.7-0.2-1.4-0.3-2.1-0.3c-0.6,0-1.2,0.1-1.7,0.2c-0.6,0.1-1.1,0.3-1.6,0.6c-0.5,0.3-0.9,0.7-1.2,1.1c-0.3,0.5-0.5,1.1-0.5,1.7
			c0,0.5,0.1,1,0.4,1.4c0.3,0.4,0.7,0.7,1.1,1c0.4,0.3,0.9,0.5,1.4,0.7c0.5,0.2,1,0.3,1.4,0.4l3.4,0.8c0.7,0.1,1.5,0.3,2.2,0.6
			c0.7,0.3,1.3,0.6,1.9,1.1c0.6,0.5,1,1.1,1.4,1.7c0.4,0.7,0.6,1.6,0.5,2.4c0,1-0.2,2-0.8,2.9c-0.5,0.8-1.2,1.5-2,2
			c-0.8,0.5-1.7,0.9-2.7,1.1c-1,0.2-2,0.3-3,0.3c-2.1,0.1-4.3-0.5-6-1.8c-1.5-1.2-2.4-3.1-2.6-5.6h2.6c0,1.5,0.7,3,1.9,3.9
			c1.2,0.9,2.8,1.4,4.3,1.3c0.6,0,1.3-0.1,1.9-0.2c0.7-0.1,1.3-0.4,1.9-0.7c0.5-0.3,1-0.7,1.4-1.2c0.4-0.5,0.6-1.2,0.5-1.9
			c0-0.5-0.1-1.1-0.4-1.5c-0.2-0.4-0.6-0.8-1-1.1c-0.5-0.3-1-0.5-1.5-0.7c-0.6-0.2-1.1-0.3-1.7-0.5l-3.3-0.7
			c-0.8-0.2-1.6-0.4-2.3-0.8c-0.7-0.3-1.3-0.6-1.8-1.1c-0.5-0.4-0.9-0.9-1.2-1.5c-0.3-0.7-0.5-1.5-0.5-2.2c0-1,0.2-1.9,0.7-2.7
			c0.5-0.7,1.1-1.4,1.8-1.8c0.8-0.5,1.6-0.8,2.5-1c0.9-0.2,1.9-0.3,2.8-0.3c1,0,2,0.1,3,0.4c0.9,0.3,1.7,0.7,2.4,1.3
			c0.7,0.6,1.3,1.3,1.7,2.1c0.4,0.9,0.7,2,0.7,3L552.9,21.1z"/>
		<path class="st0" d="M565.3,15h4.3v2.1h-4.3v13.9c0,0.7,0.1,1.3,0.3,1.9c0.2,0.5,0.8,0.7,1.7,0.8c0.7,0,1.5,0,2.2-0.1v2.2
			c-0.4,0-0.8,0-1.1,0s-0.8,0-1.1,0c-1.3,0.1-2.6-0.2-3.6-1c-0.7-0.7-1-1.9-1-3.6V17.1h-3.6V15h3.7V8.7h2.6L565.3,15z"/>
		<path class="st0" d="M574.7,6.9h2.6V11h-2.6V6.9z M574.7,14.9h2.6V36h-2.6V14.9z"/>
		<path class="st0" d="M601.2,33.8c0,1.4-0.2,2.8-0.5,4.2c-0.3,1.1-0.8,2.2-1.6,3.1c-0.8,0.9-1.8,1.6-2.9,2
			c-1.4,0.5-2.9,0.7-4.3,0.7c-1,0-2.1-0.1-3.1-0.4c-1-0.2-1.9-0.6-2.7-1.1c-0.8-0.5-1.5-1.2-2-2c-0.6-0.9-0.9-1.8-0.9-2.9h2.6
			c0.1,0.7,0.4,1.4,0.8,2c0.4,0.5,0.9,0.9,1.5,1.2c0.6,0.3,1.2,0.6,1.8,0.7c0.7,0.1,1.4,0.2,2.1,0.2c2.4,0,4.1-0.6,5.2-1.8
			c1.2-1.6,1.7-3.5,1.6-5.5v-2.8h-0.1c-0.6,1.3-1.5,2.4-2.6,3.1c-1.2,0.8-2.6,1.2-4,1.2c-1.5,0-2.9-0.2-4.3-0.8
			c-1.1-0.5-2.2-1.3-3-2.2c-0.8-1-1.4-2.1-1.7-3.3c-0.4-1.3-0.5-2.7-0.5-4.1c0-1.4,0.2-2.7,0.6-4c0.4-1.2,1-2.3,1.8-3.2
			c0.8-0.9,1.8-1.7,3-2.2c1.3-0.6,2.6-0.8,4-0.8c1.4,0,2.8,0.3,4.1,0.9c1.1,0.6,2,1.5,2.6,2.7h0.1V15h2.6L601.2,33.8z M594.8,32.8
			c0.8-0.4,1.5-1.1,2.1-1.8c0.6-0.8,1-1.6,1.3-2.6c0.3-1,0.4-2,0.4-3c0-1-0.1-2-0.4-3c-0.2-1-0.6-1.9-1.2-2.7
			c-0.5-0.8-1.2-1.5-2.1-2c-1-0.5-2-0.8-3.1-0.8c-1.1,0-2.2,0.2-3.1,0.7c-0.8,0.5-1.6,1.1-2.2,1.9c-0.6,0.8-1,1.7-1.2,2.7
			c-0.3,1-0.4,2-0.4,3.1c0,1,0.1,2,0.4,3c0.3,0.9,0.7,1.8,1.3,2.6c0.6,0.7,1.3,1.4,2.2,1.8c1,0.5,2,0.7,3.1,0.7
			C592.9,33.5,593.9,33.3,594.8,32.8L594.8,32.8z"/>
		<path class="st0" d="M607.2,21.4c-0.1-2.1,0.9-4.1,2.5-5.4c1.8-1.2,3.9-1.8,6-1.7c0.9,0,1.9,0.1,2.8,0.3c0.9,0.2,1.7,0.5,2.5,1
			c0.8,0.5,1.4,1.2,1.8,2c0.5,1.1,0.7,2.2,0.7,3.4v11.2c-0.1,0.7,0.4,1.4,1.1,1.5c0.1,0,0.2,0,0.4,0c0.3,0,0.6-0.1,0.8-0.2v2.2
			l-0.8,0.1c-0.3,0-0.6,0-0.9,0c-0.5,0-1.1-0.1-1.6-0.3c-0.4-0.2-0.7-0.4-0.9-0.8c-0.2-0.3-0.4-0.7-0.4-1.2c-0.1-0.5-0.1-1-0.1-1.5
			H621c-0.4,0.6-0.9,1.2-1.4,1.8c-0.5,0.5-1,1-1.6,1.4c-0.6,0.4-1.3,0.7-2,0.8c-0.9,0.2-1.8,0.3-2.6,0.3c-0.9,0-1.8-0.1-2.7-0.4
			c-0.8-0.2-1.6-0.6-2.2-1.1c-0.6-0.5-1.2-1.2-1.5-1.9c-0.4-0.9-0.6-1.8-0.5-2.7c-0.1-1.2,0.3-2.4,1-3.4c0.7-0.8,1.6-1.5,2.6-1.9
			c1.2-0.5,2.4-0.8,3.6-0.9l4.1-0.5c0.5,0,0.9-0.1,1.4-0.2c0.4-0.1,0.7-0.2,1-0.4c0.3-0.2,0.5-0.5,0.6-0.8c0.2-0.4,0.2-0.9,0.2-1.4
			c0-0.7-0.1-1.5-0.4-2.1c-0.3-0.5-0.7-1-1.2-1.3c-0.5-0.3-1.1-0.6-1.8-0.7c-0.7-0.1-1.4-0.2-2.1-0.2c-1.4-0.1-2.8,0.3-4,1.2
			c-1.1,0.9-1.7,2.3-1.7,3.7L607.2,21.4z M620.8,24.5L620.8,24.5c-0.3,0.3-0.6,0.6-1,0.6c-0.4,0.1-0.8,0.2-1.2,0.3
			c-1.1,0.2-2.2,0.4-3.3,0.5c-1.1,0.1-2.1,0.4-3.2,0.7c-0.9,0.3-1.7,0.7-2.3,1.3c-0.6,0.6-1,1.5-0.9,2.4c0,0.6,0.1,1.2,0.4,1.7
			c0.2,0.5,0.6,0.9,1,1.3c0.4,0.4,1,0.7,1.5,0.8c0.6,0.2,1.2,0.3,1.8,0.3c1,0,1.9-0.1,2.8-0.5c0.9-0.3,1.7-0.7,2.3-1.3
			c1.4-1.2,2.2-3,2.2-4.8L620.8,24.5z"/>
		<path class="st0" d="M644.7,22.2c-0.3-1.4-1-2.7-2-3.7c-1.1-1-2.5-1.4-4-1.3c-2.1-0.1-4.2,0.9-5.5,2.6c-0.6,0.8-1.1,1.7-1.4,2.7
			c-0.6,2-0.6,4.1,0,6.1c0.3,1,0.8,1.9,1.4,2.7c1.3,1.7,3.4,2.7,5.5,2.6c0.8,0,1.5-0.2,2.2-0.5c0.7-0.3,1.3-0.7,1.9-1.2
			c0.6-0.5,1-1.2,1.3-1.9c0.4-0.8,0.6-1.6,0.7-2.4h2.6c-0.2,2.3-1.2,4.4-2.8,6c-1.6,1.5-3.6,2.2-5.8,2.2c-1.5,0-2.9-0.3-4.2-0.8
			c-1.2-0.5-2.2-1.3-3.1-2.3c-0.9-1-1.5-2.1-1.9-3.3c-0.9-2.6-0.9-5.5,0-8.1c0.4-1.2,1.1-2.4,1.9-3.3c0.9-1,1.9-1.7,3.1-2.3
			c1.3-0.6,2.8-0.9,4.2-0.8c2.1-0.1,4.1,0.6,5.7,1.8c1.6,1.3,2.7,3.3,2.8,5.4L644.7,22.2z"/>
		<path class="st0" d="M652.3,6.9h2.6V11h-2.6V6.9z M652.3,14.9h2.6V36h-2.6V14.9z"/>
		<path class="st0" d="M674.3,15.8c1.2,0.5,2.2,1.3,3.1,2.3c0.9,1,1.5,2.1,1.9,3.3c0.9,2.6,0.9,5.5,0,8.1c-0.4,1.2-1.1,2.4-1.9,3.3
			c-0.9,1-1.9,1.7-3.1,2.3c-2.7,1.1-5.8,1.1-8.5,0c-1.2-0.5-2.2-1.3-3.1-2.3c-0.9-1-1.5-2.1-1.9-3.3c-0.9-2.6-0.9-5.5,0-8.1
			c0.4-1.2,1.1-2.4,1.9-3.3c0.9-1,1.9-1.7,3.1-2.3C668.5,14.7,671.6,14.7,674.3,15.8z M666.8,17.8c-0.9,0.5-1.7,1.1-2.3,1.9
			c-0.6,0.8-1.1,1.7-1.4,2.7c-0.6,2-0.6,4.1,0,6.1c0.3,1,0.8,1.9,1.4,2.7c2.4,3,6.8,3.6,9.8,1.2c0.4-0.3,0.8-0.7,1.2-1.2
			c0.6-0.8,1.1-1.7,1.4-2.7c0.6-2,0.6-4.1,0-6.1c-0.3-1-0.8-1.9-1.4-2.7C673.4,17.2,669.8,16.4,666.8,17.8L666.8,17.8z M669.7,12.6
			h-2.1l4.3-5.7h3.2L669.7,12.6z"/>
		<path class="st0" d="M685.1,15h2.6v3.6h0.1c0.2-0.6,0.6-1.2,1-1.7c0.4-0.5,1-1,1.6-1.3c0.6-0.4,1.3-0.6,2-0.6h2.2
			c1.2,0,2.5,0.2,3.7,0.6c0.9,0.3,1.7,0.9,2.4,1.6c0.6,0.7,1,1.6,1.3,2.5c0.3,1.1,0.4,2.2,0.4,3.3V36h-2.6V23.3
			c0-0.8-0.1-1.6-0.2-2.4c-0.1-0.7-0.4-1.4-0.8-2c-0.4-0.6-1-1-1.7-1.3c-0.8-0.3-1.7-0.5-2.6-0.5c-0.9,0-1.9,0.2-2.7,0.5
			c-0.8,0.3-1.5,0.8-2,1.5c-0.6,0.6-1,1.4-1.3,2.2c-0.3,0.9-0.5,1.8-0.5,2.8V36h-2.6L685.1,15z"/>
		<path class="st0" d="M260.1,123.3c0,0.7,0,1.5-0.1,2.2c-0.1,0.8-0.3,1.6-0.5,2.3c-0.3,0.8-0.6,1.5-1.1,2.2
			c-0.5,0.7-1.1,1.4-1.9,1.9c-0.9,0.6-1.8,1.1-2.8,1.4c-1.3,0.4-2.6,0.5-4,0.5c-1.3,0-2.6-0.2-3.8-0.5c-1.2-0.3-2.3-0.9-3.3-1.7
			c-1-0.8-1.8-1.8-2.3-3c-0.6-1.4-0.9-2.9-0.9-4.4v-2.7h6.2v1.4c0,0.7,0.1,1.4,0.2,2.1c0.1,0.6,0.3,1.1,0.6,1.6
			c0.3,0.5,0.7,0.8,1.2,1.1c0.6,0.3,1.3,0.4,2,0.4c0.7,0,1.5-0.1,2.1-0.5c0.5-0.3,0.8-0.7,1.1-1.2c0.2-0.5,0.4-1.1,0.4-1.7
			c0-0.6,0.1-1.2,0.1-1.7v-21h6.8L260.1,123.3z"/>
		<path class="st0" d="M266.2,121.9c0-1.7,0.2-3.3,0.8-4.9c1-2.8,3.2-5.1,6-6.1c1.5-0.6,3.2-0.9,4.8-0.8c1.6,0,3.3,0.3,4.8,0.8
			c2.8,1.1,5,3.3,6,6.1c0.6,1.6,0.9,3.2,0.8,4.9c0,1.7-0.3,3.3-0.8,4.9c-1,2.8-3.2,5-6,6.1c-1.5,0.6-3.2,0.9-4.8,0.9
			c-1.6,0-3.3-0.3-4.8-0.9c-2.8-1.1-5-3.3-6-6.1C266.4,125.2,266.2,123.6,266.2,121.9z M272.4,121.9c0,0.9,0.1,1.8,0.3,2.6
			c0.2,0.8,0.5,1.6,0.9,2.3c0.4,0.7,1,1.2,1.7,1.6c0.8,0.4,1.7,0.6,2.6,0.6c0.9,0,1.8-0.2,2.6-0.6c0.7-0.4,1.3-1,1.7-1.6
			c0.4-0.7,0.7-1.5,0.9-2.3c0.2-0.9,0.3-1.7,0.3-2.6c0-0.9-0.1-1.8-0.3-2.7c-0.2-0.8-0.5-1.6-0.9-2.3c-0.4-0.7-1-1.2-1.7-1.6
			c-0.8-0.4-1.7-0.7-2.6-0.6c-1.7-0.1-3.4,0.8-4.3,2.3c-0.4,0.7-0.7,1.5-0.9,2.3C272.5,120.1,272.4,121,272.4,121.9L272.4,121.9z"/>
		<path class="st0" d="M299.7,125.8c0,0.6,0.1,1.2,0.4,1.7c0.3,0.5,0.6,0.9,1.1,1.2c0.5,0.3,1,0.5,1.5,0.7c0.6,0.1,1.2,0.2,1.8,0.2
			c0.5,0,0.9-0.1,1.4-0.1c0.5-0.1,0.9-0.3,1.3-0.5c0.4-0.2,0.7-0.5,1-0.9c0.3-0.4,0.4-0.9,0.4-1.4c0-0.4-0.2-0.9-0.5-1.2
			c-0.4-0.4-0.9-0.7-1.4-0.9c-0.7-0.3-1.4-0.5-2.2-0.7c-0.9-0.2-1.9-0.4-3-0.7c-0.9-0.2-1.8-0.4-2.6-0.7c-0.8-0.3-1.6-0.6-2.3-1.1
			c-0.7-0.4-1.2-1-1.6-1.7c-0.4-0.8-0.6-1.6-0.6-2.5c0-1.2,0.2-2.5,0.9-3.6c0.5-0.9,1.3-1.7,2.2-2.2c1-0.6,2-0.9,3.1-1.1
			c1.2-0.2,2.4-0.3,3.6-0.3c1.2,0,2.4,0.1,3.5,0.3c1.1,0.2,2.1,0.6,3.1,1.2c0.9,0.6,1.7,1.3,2.2,2.2c0.6,1,1,2.2,1.1,3.5h-5.9
			c0-1-0.5-1.9-1.4-2.4c-0.9-0.4-1.9-0.7-2.9-0.6c-0.4,0-0.8,0-1.1,0.1c-0.4,0-0.8,0.1-1.1,0.3c-0.3,0.1-0.6,0.4-0.9,0.6
			c-0.2,0.3-0.4,0.7-0.4,1.1c0,0.5,0.2,1,0.6,1.3c0.5,0.4,1,0.7,1.6,0.8c0.7,0.2,1.5,0.4,2.3,0.6c0.8,0.2,1.7,0.4,2.6,0.6
			c0.9,0.2,1.8,0.4,2.6,0.7c0.8,0.3,1.6,0.7,2.3,1.2c0.7,0.5,1.2,1.1,1.6,1.8c0.4,0.8,0.6,1.7,0.6,2.6c0.1,2.5-1.1,4.8-3.2,6.1
			c-1,0.6-2.1,1.1-3.3,1.3c-1.2,0.3-2.5,0.4-3.8,0.4c-1.3,0-2.6-0.1-3.8-0.4c-1.2-0.2-2.3-0.7-3.3-1.3c-2.1-1.3-3.4-3.7-3.4-6.2
			L299.7,125.8z"/>
		<path class="st0" d="M324.8,123.4c-0.1,1.6,0.5,3.1,1.5,4.3c2.1,1.7,5,1.8,7.2,0.4c0.8-0.5,1.3-1.2,1.6-2h5.4
			c-0.6,2.3-2,4.4-4,5.8c-2,1.2-4.2,1.9-6.5,1.8c-1.6,0-3.3-0.3-4.8-0.9c-1.4-0.5-2.6-1.4-3.6-2.4c-1-1.1-1.8-2.4-2.3-3.7
			c-0.6-1.5-0.8-3.2-0.8-4.8c0-1.6,0.3-3.2,0.8-4.7c1-2.8,3.2-5.1,6-6.3c1.5-0.6,3.1-0.9,4.7-0.9c1.7,0,3.4,0.3,5,1.1
			c1.4,0.7,2.6,1.7,3.5,3c0.9,1.3,1.6,2.7,2,4.3c0.4,1.6,0.6,3.3,0.4,5L324.8,123.4z M334.9,119.5c-0.2-1.3-0.7-2.5-1.5-3.6
			c-0.9-0.9-2.1-1.3-3.4-1.2c-0.8,0-1.7,0.1-2.5,0.5c-0.6,0.3-1.1,0.7-1.6,1.2c-0.4,0.5-0.7,1-0.8,1.6c-0.1,0.5-0.2,1-0.3,1.5H334.9
			z"/>
		<path class="st0" d="M346.2,110.6h5.8v2.9h0.1c0.7-1.1,1.7-2.1,2.9-2.7c1.2-0.6,2.5-0.8,3.8-0.8c1.6,0,3.2,0.3,4.6,1
			c1.2,0.6,2.3,1.5,3.2,2.7c0.9,1.2,1.5,2.5,1.9,3.8c0.4,1.5,0.6,3,0.6,4.6c0,1.5-0.2,2.9-0.6,4.3c-0.4,1.3-1,2.6-1.9,3.7
			c-0.8,1.1-1.9,2-3.1,2.6c-1.3,0.7-2.8,1-4.3,1c-1.3,0-2.6-0.3-3.8-0.9c-1.2-0.6-2.2-1.4-2.9-2.5h-0.1V141h-6.2L346.2,110.6z
			 M357.5,129.1c1.7,0.1,3.3-0.8,4.2-2.2c0.4-0.7,0.7-1.5,0.9-2.3c0.2-0.9,0.3-1.8,0.3-2.7c0-0.9-0.1-1.8-0.3-2.7
			c-0.2-0.8-0.5-1.6-0.9-2.3c-0.4-0.7-1-1.2-1.7-1.7c-0.8-0.4-1.6-0.7-2.5-0.6c-0.9,0-1.8,0.2-2.5,0.6c-0.7,0.4-1.2,1-1.6,1.6
			c-0.4,0.7-0.7,1.5-0.9,2.3c-0.2,0.9-0.3,1.8-0.3,2.7c0,0.9,0.1,1.8,0.3,2.7c0.2,0.8,0.5,1.6,0.9,2.3
			C354.2,128.3,355.8,129.2,357.5,129.1L357.5,129.1z"/>
		<path class="st0" d="M409.1,112.5c-0.1-0.8-0.4-1.5-0.8-2.2c-0.4-0.7-0.9-1.2-1.5-1.7c-1.3-1-2.9-1.6-4.5-1.6
			c-1.4,0-2.7,0.3-3.9,0.9c-1.1,0.6-1.9,1.4-2.6,2.4c-0.7,1-1.2,2.2-1.5,3.4c-0.3,1.3-0.5,2.7-0.5,4c0,1.3,0.2,2.6,0.5,3.8
			c0.3,1.2,0.8,2.3,1.5,3.3c0.7,1,1.6,1.8,2.6,2.4c1.2,0.6,2.6,0.9,3.9,0.9c1.8,0.1,3.6-0.6,4.9-1.9c1.2-1.4,2-3.2,2.1-5h6.6
			c-0.1,1.8-0.6,3.6-1.4,5.3c-0.7,1.5-1.7,2.9-2.9,4c-1.2,1.1-2.6,2-4.2,2.6c-1.7,0.6-3.5,0.9-5.3,0.9c-2.2,0-4.4-0.4-6.4-1.3
			c-1.8-0.8-3.5-2-4.8-3.4c-1.3-1.5-2.4-3.2-3-5.1c-0.7-2-1-4.2-1-6.3c0-2.2,0.3-4.4,1-6.4c0.6-1.9,1.7-3.7,3-5.2
			c1.3-1.5,3-2.7,4.8-3.5c3.6-1.5,7.6-1.7,11.3-0.5c1.5,0.5,2.9,1.2,4.1,2.2c1.2,1,2.2,2.1,3,3.5c0.8,1.5,1.3,3.1,1.5,4.8
			L409.1,112.5z"/>
		<path class="st0" d="M421.2,117.5c0-1.3,0.4-2.5,1.1-3.6c0.6-0.9,1.5-1.7,2.4-2.3c1-0.6,2.1-1,3.3-1.2c1.2-0.2,2.5-0.4,3.7-0.4
			c1.2,0,2.3,0.1,3.4,0.2c1.1,0.1,2.2,0.5,3.2,0.9c0.9,0.5,1.7,1.1,2.4,2c0.6,1,1,2.1,0.9,3.3v11.7c0,1,0.1,2,0.2,2.9
			c0.1,0.7,0.3,1.4,0.6,2.1h-6.3c-0.1-0.4-0.2-0.7-0.3-1.1c-0.1-0.4-0.1-0.7-0.1-1.1c-1,1-2.2,1.7-3.5,2.1c-1.3,0.4-2.7,0.6-4.1,0.6
			c-1,0-2-0.1-3-0.4c-0.9-0.3-1.7-0.7-2.4-1.2c-0.7-0.6-1.3-1.3-1.7-2.1c-0.4-0.9-0.6-2-0.6-3c0-1.1,0.2-2.2,0.6-3.2
			c0.4-0.8,1-1.5,1.7-2c0.8-0.5,1.6-0.9,2.5-1.1c0.9-0.2,1.9-0.4,2.8-0.6c1-0.1,1.9-0.3,2.7-0.3c0.8-0.1,1.6-0.2,2.3-0.4
			c0.6-0.1,1.1-0.4,1.6-0.8c0.4-0.4,0.6-0.9,0.6-1.5c0-0.5-0.1-1.1-0.3-1.6c-0.2-0.4-0.5-0.7-0.9-0.9c-0.4-0.2-0.8-0.4-1.3-0.4
			c-0.5-0.1-1-0.1-1.5-0.1c-1-0.1-2,0.2-2.9,0.8c-0.8,0.6-1.2,1.6-1.2,2.6H421.2z M435.4,122.1c-0.3,0.2-0.6,0.4-1,0.5
			c-0.4,0.1-0.8,0.2-1.3,0.3c-0.5,0.1-0.9,0.2-1.4,0.2s-1,0.1-1.5,0.2c-0.5,0.1-0.9,0.2-1.4,0.3c-0.4,0.1-0.8,0.3-1.1,0.6
			c-0.3,0.3-0.6,0.6-0.8,1c-0.2,0.4-0.3,0.9-0.3,1.4c0,0.5,0.1,1,0.3,1.4c0.2,0.4,0.5,0.7,0.8,0.9c0.4,0.2,0.8,0.4,1.2,0.5
			c0.5,0.1,1,0.1,1.4,0.1c1,0.1,2-0.2,2.8-0.6c0.6-0.4,1.1-0.9,1.5-1.5c0.3-0.5,0.5-1.1,0.6-1.7c0.1-0.5,0.1-0.9,0.1-1.4
			L435.4,122.1z"/>
		<path class="st0" d="M447.8,110.6h5.9v4.2h0.1c0.3-0.7,0.7-1.4,1.2-1.9c0.5-0.6,1.1-1.1,1.7-1.5c0.6-0.4,1.3-0.8,2.1-1
			c0.7-0.2,1.5-0.3,2.2-0.3c0.5,0,0.9,0.1,1.4,0.2v5.8c-0.3-0.1-0.6-0.1-1-0.2c-0.4,0-0.8-0.1-1.2-0.1c-1,0-2,0.2-2.9,0.6
			c-0.7,0.3-1.4,0.9-1.9,1.5c-0.5,0.7-0.8,1.5-1,2.3c-0.2,0.9-0.4,1.9-0.4,2.8v10.1h-6.2L447.8,110.6z"/>
		<path class="st0" d="M466.2,110.6h5.9v4.2h0.1c0.3-0.7,0.7-1.4,1.2-1.9c0.5-0.6,1.1-1.1,1.7-1.5c0.6-0.4,1.3-0.8,2.1-1
			c0.7-0.2,1.5-0.3,2.2-0.3c0.5,0,0.9,0.1,1.4,0.2v5.8c-0.3-0.1-0.6-0.1-1-0.2c-0.4,0-0.8-0.1-1.2-0.1c-1,0-2,0.2-2.9,0.6
			c-0.7,0.3-1.4,0.9-1.9,1.5c-0.5,0.7-0.8,1.5-1,2.3c-0.2,0.9-0.3,1.9-0.3,2.8v10.1h-6.2L466.2,110.6z"/>
		<path class="st0" d="M488.9,123.4c-0.1,1.6,0.5,3.1,1.5,4.3c2.1,1.7,5,1.8,7.2,0.4c0.8-0.5,1.3-1.2,1.6-2h5.4
			c-0.6,2.3-2,4.4-4,5.8c-2,1.2-4.2,1.9-6.5,1.8c-1.6,0-3.3-0.3-4.8-0.9c-1.4-0.5-2.6-1.4-3.6-2.4c-1-1.1-1.8-2.4-2.3-3.7
			c-0.6-1.5-0.8-3.2-0.8-4.8c0-1.6,0.3-3.2,0.8-4.7c1-2.8,3.2-5.1,6-6.3c1.5-0.6,3.1-0.9,4.7-0.9c1.7,0,3.4,0.3,5,1.1
			c1.4,0.7,2.6,1.7,3.5,3c0.9,1.3,1.6,2.7,2,4.3c0.4,1.6,0.6,3.3,0.4,5L488.9,123.4z M498.9,119.5c-0.2-1.3-0.7-2.5-1.5-3.6
			c-0.9-0.9-2.1-1.3-3.4-1.2c-0.8,0-1.7,0.1-2.5,0.5c-0.6,0.3-1.1,0.7-1.6,1.2c-0.4,0.5-0.7,1-0.8,1.6c-0.1,0.5-0.2,1-0.3,1.5H498.9
			z"/>
		<path class="st0" d="M510.2,110.6h5.9v4.2h0.1c0.3-0.7,0.7-1.4,1.2-1.9c0.5-0.6,1.1-1.1,1.7-1.5c0.6-0.4,1.3-0.8,2.1-1
			c0.7-0.2,1.5-0.3,2.2-0.3c0.5,0,0.9,0.1,1.3,0.2v5.8c-0.3-0.1-0.6-0.1-1-0.2c-0.4,0-0.8-0.1-1.2-0.1c-1,0-2,0.2-2.9,0.6
			c-0.7,0.3-1.4,0.9-1.9,1.5c-0.5,0.7-0.8,1.5-1,2.3c-0.2,0.9-0.3,1.9-0.3,2.8v10.1h-6.2L510.2,110.6z"/>
		<path class="st0" d="M528.3,117.5c0-1.3,0.4-2.5,1.1-3.6c0.6-0.9,1.5-1.7,2.4-2.3c1-0.6,2.1-1,3.3-1.2c1.2-0.2,2.5-0.4,3.7-0.4
			c1.2,0,2.3,0.1,3.4,0.2c1.1,0.1,2.2,0.5,3.2,0.9c0.9,0.5,1.7,1.1,2.3,2c0.6,1,1,2.1,0.9,3.3v11.7c0,1,0.1,1.9,0.2,2.8
			c0.1,0.7,0.3,1.4,0.6,2.1h-6.3c-0.1-0.4-0.2-0.7-0.3-1.1c-0.1-0.4-0.1-0.7-0.2-1.1c-1,1-2.2,1.7-3.5,2.1c-1.3,0.4-2.7,0.6-4.1,0.6
			c-1,0-2-0.1-3-0.4c-0.9-0.3-1.7-0.7-2.4-1.2c-0.7-0.6-1.3-1.3-1.6-2.1c-0.4-0.9-0.6-2-0.6-3c0-1.1,0.2-2.2,0.7-3.2
			c0.4-0.8,1-1.5,1.7-2c0.8-0.5,1.6-0.9,2.5-1.1c0.9-0.2,1.9-0.4,2.8-0.6c1-0.1,1.9-0.3,2.7-0.3c0.8-0.1,1.6-0.2,2.3-0.4
			c0.6-0.1,1.1-0.4,1.6-0.8c0.4-0.4,0.6-0.9,0.6-1.5c0-0.5-0.1-1.1-0.3-1.6c-0.2-0.4-0.5-0.7-0.9-0.9c-0.4-0.2-0.8-0.4-1.3-0.4
			c-0.5-0.1-1-0.1-1.5-0.1c-1-0.1-2,0.2-2.8,0.8c-0.8,0.6-1.2,1.6-1.2,2.6L528.3,117.5z M542.6,122.1c-0.3,0.2-0.6,0.4-1,0.5
			c-0.4,0.1-0.8,0.2-1.3,0.3c-0.5,0.1-0.9,0.2-1.4,0.2s-1,0.1-1.5,0.2c-0.5,0.1-0.9,0.2-1.4,0.3c-0.4,0.1-0.8,0.3-1.2,0.6
			c-0.3,0.3-0.6,0.6-0.8,1c-0.2,0.4-0.3,0.9-0.3,1.4c0,0.5,0.1,1,0.3,1.4c0.2,0.4,0.5,0.7,0.8,0.9c0.4,0.2,0.8,0.4,1.2,0.5
			c0.5,0.1,1,0.1,1.4,0.1c1,0.1,2-0.2,2.8-0.6c0.6-0.4,1.1-0.9,1.5-1.5c0.3-0.5,0.5-1.1,0.6-1.7c0.1-0.5,0.1-0.9,0.1-1.4
			L542.6,122.1z"/>
		<path class="st0" d="M559.8,125.8c0,0.6,0.1,1.2,0.4,1.7c0.3,0.5,0.6,0.9,1.1,1.2c0.5,0.3,1,0.5,1.5,0.7c0.6,0.1,1.2,0.2,1.8,0.2
			c0.5,0,0.9-0.1,1.4-0.1c0.5-0.1,0.9-0.3,1.3-0.5c0.4-0.2,0.7-0.5,1-0.9c0.3-0.4,0.4-0.9,0.4-1.4c0-0.4-0.2-0.9-0.5-1.2
			c-0.4-0.4-0.9-0.7-1.4-0.9c-0.7-0.3-1.4-0.5-2.2-0.7c-0.9-0.2-1.9-0.4-3-0.7c-0.9-0.2-1.8-0.4-2.6-0.7c-0.8-0.3-1.6-0.6-2.3-1.1
			c-0.7-0.4-1.2-1-1.6-1.7c-0.4-0.8-0.6-1.6-0.6-2.5c0-1.2,0.2-2.5,0.8-3.6c0.5-0.9,1.3-1.7,2.2-2.2c1-0.6,2-0.9,3.1-1.1
			c1.2-0.2,2.4-0.3,3.6-0.3c1.2,0,2.4,0.1,3.5,0.3c1.1,0.2,2.1,0.6,3.1,1.2c0.9,0.6,1.7,1.3,2.2,2.2c0.6,1,1,2.2,1.1,3.5h-5.9
			c0-1-0.5-1.9-1.3-2.4c-0.9-0.4-1.9-0.7-2.9-0.6c-0.4,0-0.8,0-1.1,0.1c-0.4,0-0.8,0.1-1.1,0.3c-0.3,0.1-0.6,0.4-0.8,0.6
			c-0.2,0.3-0.4,0.7-0.3,1.1c0,0.5,0.2,1,0.6,1.3c0.5,0.4,1,0.7,1.6,0.8c0.7,0.2,1.5,0.4,2.2,0.6c0.8,0.2,1.7,0.4,2.6,0.6
			c0.9,0.2,1.8,0.4,2.6,0.7c0.8,0.3,1.6,0.7,2.3,1.2c0.7,0.5,1.2,1.1,1.6,1.8c0.4,0.8,0.6,1.7,0.6,2.6c0.1,2.5-1.1,4.8-3.2,6.1
			c-1,0.6-2.1,1.1-3.3,1.3c-1.2,0.3-2.5,0.4-3.8,0.4c-1.3,0-2.6-0.1-3.8-0.4c-1.2-0.2-2.3-0.7-3.3-1.3c-2.1-1.3-3.4-3.7-3.4-6.2
			H559.8z"/>
		<path class="st0" d="M122.1,80.6c12.2-8.9,16.3-20.1,18.9-30.3c1.9-8.3,2.5-19.3,10.7-25.5l0.1-0.1l0,0l0,0
			c12.2-9.1,29.4-6.5,38.4,5.6c0,0,0,0,0,0c9.1,12.2,8.2,28.9-8.3,41.1C158.4,89,119.8,82.2,122.1,80.6z"/>
		<path class="st0" d="M140.3,91.5c4.8,0-39.6,46.6-89,47C25.7,138.7,0.2,118.2,0,92.7S18.9,46.2,44.4,46
			C72.9,45.8,88.2,91.9,140.3,91.5z"/>
		<path class="st0" d="M578.8,109.9v14.3h8.1v0.1c0,1-0.4,1.9-1,2.7c-1,1-2.1,1.8-3.4,2.3l3.3,3.8c2.2-0.8,4.1-2.2,5.6-4
			c1.2-1.8,1.8-4,1.7-6.2v-13H578.8z M586.9,121.6c-0.1-0.5-0.2-1-0.3-1.5c-0.2-1.3-0.4-1.6-1.4-1.6h-0.4v3.1h-2.7v-9.2h3.9
			c0.9-0.1,1.8,0.1,2.5,0.6c0.6,0.5,1,1.2,0.9,2c0.1,1.2-0.8,2.2-2,2.2c0,0,0,0-0.1,0c1.3,0.1,1.8,0.5,2,2l0.1,0.9
			c0.1,0.5,0.2,0.9,0.3,1.4L586.9,121.6z"/>
		<path class="st0" d="M585.4,114.7h-0.6v1.8h0.7c0.9,0,1.4-0.3,1.4-0.9S586.4,114.7,585.4,114.7z"/>
	</g>
</g>
</svg>
